<svg width="1320" height="837" xmlns="http://www.w3.org/2000/svg">

 <g>
  <title>Layer 1</title>
  <g stroke="null" id="svg_11">
   <path stroke="null" id="svg_10" fill="#ffffff" d="m901.70772,837.00002c-75.03942,0 -133.3465,-19.30417 -174.92249,-57.91251c-41.5758,-39.62402 -62.36367,-101.08835 -62.36367,-184.39975c0,-70.10257 13.68959,-147.3174 41.0687,-231.64387c27.37923,-84.32709 71.99735,-156.96949 133.85379,-217.92905c61.85644,-61.97475 140.4446,-92.96225 235.76447,-92.96225c111.54498,0 167.31716,48.76722 167.31716,146.30172c0,56.89498 -16.22449,109.21814 -48.67408,156.96949c-32.44898,47.75135 -75.54603,86.35846 -129.29053,115.82194c-53.74389,28.4478 -111.03714,44.70368 -171.87974,48.76765c-2.02829,30.47917 -3.04213,50.79902 -3.04213,60.95895c0,49.78272 8.61916,83.81863 25.85811,102.10527c17.23833,17.2728 45.12473,25.9092 83.65858,25.9092c54.75773,0 101.40413,-12.69914 139.93737,-38.09742c39.54769,-25.40259 82.64474,-64.00969 129.29053,-115.82501l51.71621,0c-112.55882,187.95711 -251.98958,281.93566 -418.29229,281.93566zm3.04213,-390.1375c37.5194,-2.03199 73.01112,-15.2402 106.47456,-39.62341c34.47727,-24.38382 61.85644,-55.37145 82.1369,-92.96287c21.29491,-37.59142 31.94237,-77.21483 31.94237,-118.87022c0,-41.65539 -12.67513,-62.48247 -38.02663,-62.48247c-36.50556,0 -72.5039,32.00331 -107.99501,96.00992c-34.47789,64.00723 -59.32154,136.65025 -74.53219,217.92905z" opacity="0.1"/>
  </g>
 </g>
</svg>