<svg width="1320" height="1089" viewBox="0 0 1320 837" fill="none" xmlns="http://www.w3.org/2000/svg"><g opacity=".1"><path d="M631.536 45.337l421.524 806.568h307.95L631.536 45.337z" fill="url(#paint0_linear)"/><path d="M630.702 43.105H322.483l730.337 808.811h.27L631.57 44.714l-.868-1.609z" fill="url(#paint1_linear)"/><path d="M1767.78 1.127C760.503 87.675 112.133 571.334 112.133 571.334L0 851.043C683.385 120.751 1661.15 11.072 1767.78 1.127z" fill="url(#paint2_linear)"/><path d="M1777.35.301c-3.19.254-6.36.545-9.54.814C1661.1 11.06 683.409 120.76.078 851.031H116.33l476.793-229.822C1077.42 159.552 1777.35.305 1777.35.305V.301z" fill="url(#paint3_linear)"/><path d="M1767.81 1.074C1661.1 11.019 683.409 120.718.078 850.99h391.88c60.062-83.807 128.156-160.246 201.166-229.842C1077.42 159.496 1777.35.245 1777.35.245c-3.19.268-6.36.56-9.54.829z" fill="url(#paint4_linear)"/></g><defs><linearGradient id="paint0_linear" x1="631.559" y1="448.63" x2="1364.95" y2="448.63" gradientUnits="userSpaceOnUse"><stop stop-color="#fff"/><stop offset="1" stop-color="#fff" stop-opacity=".61"/></linearGradient><linearGradient id="paint1_linear" x1="322.505" y1="447.52" x2="1057.04" y2="447.52" gradientUnits="userSpaceOnUse"><stop stop-color="#fff"/><stop offset="1" stop-color="#fff" stop-opacity=".61"/></linearGradient><linearGradient id="paint2_linear" x1=".054" y1="426.094" x2="1777.33" y2="426.094" gradientUnits="userSpaceOnUse"><stop stop-color="#fff"/><stop offset="1" stop-color="#fff" stop-opacity=".61"/></linearGradient><linearGradient id="paint3_linear" x1=".132" y1="425.676" x2="1786.95" y2="425.676" gradientUnits="userSpaceOnUse"><stop stop-color="#fff"/><stop offset="1" stop-color="#fff" stop-opacity=".61"/></linearGradient><linearGradient id="paint4_linear" x1=".132" y1="425.627" x2="1786.95" y2="425.627" gradientUnits="userSpaceOnUse"><stop stop-color="#fff"/><stop offset="1" stop-color="#fff" stop-opacity=".61"/></linearGradient></defs></svg>