<svg width="1056" height="772" fill="none" xmlns="http://www.w3.org/2000/svg"><path opacity=".1" d="M416.535 802.761c11.404 34.885 25.418 58.735 42.48 71.568 19.214 15.218 43.155 22.817 71.931 22.817 32.663 0 58.866-9.059 78.482-27.409 7.81-7.618 14.379-17.104 19.616-28.495 5.128-11.16 12.536-31.824 22.208-61.957l126.089-409.346 68.702 409.756c6.168 37.999 15.2 64.768 27.408 80.484 18.685 24.633 45.582 36.95 80.398 36.95 24.342 0 46.381-7.6 66.021-22.818 23.94-19.667 35.91-45.083 35.91-76.587 0-10.732-2.04-27.89-6.48-51.544L934.89 105.348c-4.726-28.05-19.215-52.043-43.155-72.12C865.13 12.12 834.602 1.495 800.187 1.495c-30.108 0-56.603 8.259-79.613 24.811-26.204 18.617-44.761 44.977-55.637 79.061L527.023 534.504 376.719 86.197c-8.303-25.025-22.828-45.084-43.794-59.91C309.385 9.361 281.449.836 249.242.836c-38.265 0-70.782 11.284-97.387 33.817-20.455 17.318-33.776 44.069-39.907 80.253L6.113 747.96C2.208 770.511.219 786.885.219 797.119c0 32.785 12.207 58.486 36.568 77.886 19.087 14.719 40.728 22.159 64.65 22.159 35.346 0 61.951-12.316 79.833-36.949 11.715-16.001 20.583-43.037 26.769-80.485l66.658-409.755 141.838 432.786z" fill="#fff"/></svg>