<svg width="1320" height="837" xmlns="http://www.w3.org/2000/svg"><g stroke="null" id="svg_11"><path stroke="null" id="svg_10" fill="#fff" d="M901.708 837c-75.04 0-133.347-19.304-174.923-57.912-41.576-39.625-62.363-101.089-62.363-184.4 0-70.103 13.69-147.318 41.068-231.644 27.38-84.327 71.998-156.97 133.854-217.93C901.2 83.14 979.79 52.154 1075.11 52.154c111.545 0 167.317 48.767 167.317 146.301 0 56.895-16.225 109.218-48.674 156.97-32.45 47.751-75.546 86.358-129.29 115.822-53.745 28.448-111.038 44.703-171.88 48.767-2.029 30.48-3.043 50.8-3.043 60.96 0 49.782 8.62 83.818 25.858 102.105 17.239 17.272 45.125 25.909 83.659 25.909 54.758 0 101.404-12.7 139.937-38.098 39.548-25.402 82.645-64.01 129.29-115.825H1320C1207.441 743.021 1068.01 837 901.708 837zm3.042-390.137c37.52-2.032 73.011-15.24 106.474-39.624 34.478-24.384 61.857-55.371 82.137-92.963 21.295-37.591 31.943-77.215 31.943-118.87s-12.675-62.482-38.027-62.482c-36.506 0-72.504 32.003-107.995 96.01-34.478 64.007-59.322 136.65-74.532 217.929z" opacity=".1"/></g></svg>