<svg style="width:700px;height:840px" width="1049" height="815" fill="none" xmlns="http://www.w3.org/2000/svg"><path opacity=".15" fill-rule="evenodd" clip-rule="evenodd" d="M1066.48 780.401l-.24-.342-.2-.272c20.87-57.654 29.27-121.175 24.49-188.448-10.92-153.344-70.07-245.521-121.788-308.803a2993.35 2993.35 0 00-3.992-49.432C955.13 126.156 946.328 94.02 943.019 82.66 928.828 33.74 921.698 9.314 903.72 1.81c-10.849-4.538-32.75-7.403-155.937 80.85a2255.009 2255.009 0 00-67.205 50.08l-10.576-1.194c-58.199-6.618-100.228-11.394-192.132-.614-3.684.341-89.379 8.767-179.304 50.25-26.882-12.281-66.864-31.044-114.863-55.504-72.186-36.775-88.766-50.727-108.484-42.984-40.937 16-42.54 103.162-43.393 150.376-1.194 65.705 11.7 118.377 21.696 150.445a596.996 596.996 0 00-31.76 101.66C7.946 549.037-37.392 721.724 67.919 869.883c34.523 48.612 104.731 132.467 219.935 180.567 55.538 23.2 100.978 29.51 140.278 34.97 38.515 5.35 162.486 19.37 317.502-27.19 63.214-18.97 127.587-38.31 195.714-93.237 109.032-87.946 125.202-184.49 125.132-184.626" fill="#fff"/></svg>